<svg width="648" height="648" viewBox="0 0 648 648" fill="none" xmlns="http://www.w3.org/2000/svg">
<path d="M430.704 324C430.704 412.058 416.466 491.09 393.985 547.554C382.728 575.829 369.697 597.701 355.995 612.257C342.32 626.785 329.036 633 316.704 633C304.373 633 291.089 626.785 277.414 612.257C263.712 597.701 250.681 575.829 239.424 547.554C216.942 491.09 202.704 412.058 202.704 324C202.704 235.942 216.942 156.91 239.424 100.446C250.681 72.1712 263.712 50.2991 277.414 35.7429C291.089 21.2154 304.373 15 316.704 15C329.036 15 342.32 21.2154 355.995 35.7429C369.697 50.2991 382.728 72.1712 393.985 100.446C416.466 156.91 430.704 235.942 430.704 324Z" fill="#FFFEFE" stroke="black" stroke-width="30"/>
<path d="M404.61 243.286C466.876 305.552 512.693 371.504 536.722 427.327C548.755 455.28 555.007 479.96 555.611 499.942C556.214 519.884 551.216 533.672 542.496 542.392C533.777 551.111 519.988 556.11 500.046 555.507C480.064 554.903 455.384 548.651 427.431 536.618C371.608 512.588 305.656 466.772 243.39 404.506C181.124 342.24 135.307 276.288 111.278 220.465C99.2447 192.511 92.9928 167.831 92.3889 147.85C91.7862 127.907 96.7845 114.119 105.504 105.4C114.224 96.6802 128.012 91.6819 147.954 92.2846C167.936 92.8885 192.616 99.1404 220.569 111.173C276.392 135.203 342.344 181.019 404.61 243.286Z" fill="#FFFEFE" stroke="black" stroke-width="30"/>
<path d="M404.61 404.506C342.344 466.772 276.392 512.588 220.569 536.618C192.616 548.651 167.936 554.903 147.954 555.507C128.012 556.109 114.223 551.111 105.504 542.392C96.7844 533.672 91.7861 519.884 92.3888 499.942C92.9927 479.96 99.2446 455.28 111.278 427.327C135.307 371.504 181.124 305.552 243.39 243.286C305.656 181.019 371.608 135.203 427.431 111.173C455.384 99.1404 480.064 92.8885 500.046 92.2846C519.988 91.6819 533.776 96.6802 542.496 105.4C551.215 114.119 556.214 127.907 555.611 147.85C555.007 167.831 548.755 192.511 536.722 220.465C512.692 276.288 466.876 342.24 404.61 404.506Z" fill="#FFFEFE" stroke="black" stroke-width="30"/>
<path d="M324 209.896C412.058 209.896 491.09 224.134 547.554 246.615C575.829 257.873 597.701 270.903 612.257 284.605C626.785 298.28 633 311.564 633 323.896C633 336.227 626.785 349.511 612.257 363.186C597.701 376.888 575.829 389.919 547.554 401.176C491.09 423.658 412.058 437.896 324 437.896C235.942 437.896 156.91 423.658 100.446 401.176C72.1712 389.919 50.2991 376.888 35.7429 363.186C21.2154 349.511 15 336.227 15 323.896C15 311.564 21.2154 298.28 35.7429 284.605C50.2991 270.903 72.1712 257.873 100.446 246.615C156.91 224.134 235.942 209.896 324 209.896Z" fill="#FFFEFE" stroke="black" stroke-width="30"/>
<ellipse cx="316.972" cy="438.788" rx="80.5424" ry="173.452" transform="rotate(-179.76 316.972 438.788)" fill="white"/>
<ellipse cx="417.791" cy="386.862" rx="73.5225" ry="173.452" transform="rotate(145.922 417.791 386.862)" fill="white"/>
<ellipse cx="417.791" cy="386.862" rx="73.5225" ry="173.452" transform="rotate(145.922 417.791 386.862)" fill="white"/>
<ellipse cx="228.075" cy="393.134" rx="73.5225" ry="173.452" transform="rotate(-142.221 228.075 393.134)" fill="white"/>
<ellipse cx="317.075" cy="225.464" rx="88.6446" ry="173.452" transform="rotate(-179.76 317.075 225.464)" fill="white"/>
<ellipse cx="418.101" cy="254.229" rx="74.5501" ry="163.5" transform="rotate(-142.69 418.101 254.229)" fill="white"/>
<ellipse cx="212.597" cy="210.951" rx="76.4123" ry="94.0026" transform="rotate(-55 212.597 210.951)" fill="white"/>
</svg>
